<svg xmlns="http://www.w3.org/2000/svg" version="1.1" xmlns:xlink="http://www.w3.org/1999/xlink" xmlns:svgjs="http://svgjs.dev/svgjs" width="100%" height="100%" viewBox="0 0 1000 600"><rect width="1000" height="600" x="0" y="0" fill="#0097ff"/><g><circle r="166.66666666666666" cx="508.35676066080725" cy="530.5789083649092" fill="#ffffff" transform="matrix(0.3658286071540214,0,0,0.36582860715402143,0,105.89904571006473)"/><path d="M450.6458574969593 605.578902217018L450.6458574969593 559.8471956091018L458.8775646863842 559.8471956091018L458.8775646863842 579.61345546519L475.6966701166289 596.4325608954349L534.6143521298277 596.4325608954349L452.47512576127593 499.6591884123499L452.47512576127593 474.43053026698277L469.4974832208892 457.40817280736957L541.3724821063308 457.40817280736957L554.1773599565474 470.21305065758605L554.1773599565474 455.5789045430529L562.4090671459724 455.5789045430529L562.4090671459724 501.3106111509691L554.1773599565474 501.3106111509691L554.1773599565474 481.54435129488087L537.3582545263025 464.7252458646361L483.92837730605385 464.7252458646361L566.0676036746056 561.498618347721L566.0676036746056 586.7272764930882L549.0706527186635 603.7496339527014L471.6824425366007 603.7496339527014L458.8775646863842 590.9447561024848L458.8775646863842 605.578902217018L450.6458574969593 605.578902217018Z " fill="#0097ff" transform="matrix(0.3658286071540214,0,0,0.36582860715402143,0,105.89904571006473)"/><path d="M758.3567301280488 605.5789024609468L758.3567301280488 563.4440722042548L765.9409995742532 563.4440722042548L765.9409995742532 581.6556821707585L781.4372538131032 597.1519364096083L835.7209601271414 597.1519364096083L760.0421233383164 507.9899539386419L760.0421233383164 484.74557258036685L775.7256434894183 469.06205242926484L841.9475517095192 469.06205242926484L853.7453041813931 480.85980490113855L853.7453041813931 467.37665921899713L861.3295736275976 467.37665921899713L861.3295736275976 509.51148947568913L853.7453041813931 509.51148947568913L853.7453041813931 491.2998795091856L838.2490499425429 475.80362527033554L789.0215232593079 475.80362527033554L864.7003600481329 564.965607741302L864.7003600481329 588.2099890995772L849.0402481360624 603.8935092506791L777.7387520461269 603.8935092506791L765.9409995742532 592.0957567788054L765.9409995742532 605.5789024609468L758.3567301280488 605.5789024609468ZM988.5767610028074 597.1519364096083L1002.0599066849487 597.1519364096083L1002.0599066849487 603.8935092506791L965.4962373177527 603.8935092506791L949.8127171666507 588.2099890995772L949.8127171666507 509.51148947568913L936.3295714845093 509.51148947568913L925.3745156177694 520.4665453424291L925.3745156177694 597.1519364096083L935.4868748793754 597.1519364096083L935.4868748793754 603.8935092506791L902.2939919327148 603.8935092506791L886.6104717816128 588.2099890995772L886.6104717816128 462.32047958819413L873.1273260994714 462.32047958819413L873.1273260994714 455.57890674712337L909.7144037056988 455.57890674712337L925.3745156177694 471.2624268982254L925.3745156177694 510.02647073438203L932.631069717533 502.76991663461837L972.9166490907369 502.76991663461837L988.5767610028074 518.4534367857204L988.5767610028074 597.1519364096083ZM1120.88012800882 597.1519364096083L1134.3632736909617 597.1519364096083L1134.3632736909617 603.8935092506791L1097.7996043237658 603.8935092506791L1086.0018518518918 591.9318991055849L1074.0402417067976 603.8935092506791L1036.2827521489953 603.8935092506791L1020.5992319978932 588.2099890995772L1020.5992319978932 509.51148947568913L1007.1160863157518 509.51148947568913L1007.1160863157518 502.76991663461837L1042.8604673168456 502.76991663461837L1058.5205792289162 518.4534367857204L1058.5205792289162 597.1519364096083L1070.3183317007897 597.1519364096083L1082.1160841726637 585.3541839377348L1082.1160841726637 502.76991663461837L1105.2200160967495 502.76991663461837L1120.88012800882 518.4534367857204L1120.88012800882 597.1519364096083ZM1240.2153305913844 502.76991663461837L1255.875442503455 518.4534367857204L1255.875442503455 588.2099890995772L1240.2153305913844 603.8935092506791L1198.0805003346923 603.8935092506791L1186.2827478628187 591.9318991055849L1174.3211377177245 603.8935092506791L1151.2172057936386 603.8935092506791L1151.2172057936386 462.32047958819413L1137.734060111497 462.32047958819413L1137.734060111497 455.57890674712337L1174.3211377177245 455.57890674712337L1189.981249629795 471.2624268982254L1189.981249629795 511.87572161787017L1199.0870546130468 502.76991663461837L1240.2153305913844 502.76991663461837ZM1189.981249629795 585.3541839377348L1201.779002101669 597.1519364096083L1216.2687020621647 597.1519364096083L1216.2687020621647 509.51148947568913L1202.785556380023 509.51148947568913L1189.981249629795 522.3157962259172L1189.981249629795 585.3541839377348ZM1379.7518434581293 597.1519364096083L1393.234989140271 597.1519364096083L1393.234989140271 603.8935092506791L1356.6713197730746 603.8935092506791L1340.987799621973 588.2099890995772L1340.987799621973 509.51148947568913L1327.5046539398313 509.51148947568913L1316.5495980730916 520.4665453424291L1316.5495980730916 597.1519364096083L1326.6619573346975 597.1519364096083L1326.6619573346975 603.8935092506791L1293.469074388037 603.8935092506791L1277.7855542369348 588.2099890995772L1277.7855542369348 462.32047958819413L1264.3024085547936 462.32047958819413L1264.3024085547936 455.57890674712337L1300.889486161021 455.57890674712337L1316.5495980730916 471.2624268982254L1316.5495980730916 510.02647073438203L1323.806152172855 502.76991663461837L1364.0917315460588 502.76991663461837L1379.7518434581293 518.4534367857204L1379.7518434581293 597.1519364096083ZM1405.0327416121445 589.8953823098449L1419.030868552979 603.8935092506791L1455.9456615056474 603.8935092506791L1466.221878440474 593.6172923158525L1476.33423770208 603.8935092506791L1514.583300279544 603.8935092506791L1514.583300279544 597.1519364096083L1501.1001545974023 597.1519364096083L1501.1001545974023 516.7680435754528L1487.1254358955994 502.76991663461837L1423.244351578648 502.76991663461837L1409.246224637814 516.7680435754528L1409.246224637814 536.477780839972L1444.6394820534351 536.477780839972L1444.6394820534351 509.51148947568913L1462.336110761246 509.51148947568913L1462.336110761246 549.9609265221134L1419.030868552979 549.9609265221134L1405.0327416121445 563.9590534629477L1405.0327416121445 589.8953823098449ZM1444.6394820534351 597.1519364096083L1444.6394820534351 556.7024993631842L1462.336110761246 556.7024993631842L1462.336110761246 587.0395771480024L1452.2237514996395 597.1519364096083L1444.6394820534351 597.1519364096083ZM1699.1338568038545 597.1519364096083L1712.6170024859962 597.1519364096083L1712.6170024859962 603.8935092506791L1675.210636513666 603.8935092506791L1661.212509572832 589.8953823098449L1661.212509572832 509.51148947568913L1649.414757100958 509.51148947568913L1637.6170046290845 521.3092419475629L1637.6170046290845 597.1519364096083L1647.7293638906904 597.1519364096083L1647.7293638906904 603.8935092506791L1598.8529607929277 603.8935092506791L1598.8529607929277 509.51148947568913L1587.0552083210541 509.51148947568913L1575.2574558491801 521.3092419475629L1575.2574558491801 597.1519364096083L1585.369815110786 597.1519364096083L1585.369815110786 603.8935092506791L1523.0102663308821 603.8935092506791L1523.0102663308821 597.1519364096083L1536.4934120130238 597.1519364096083L1536.4934120130238 509.51148947568913L1523.0102663308821 509.51148947568913L1523.0102663308821 502.76991663461837L1559.5973439371096 502.76991663461837L1571.5589540822039 514.5676691064921L1583.3567065540778 502.76991663461837L1621.956892717014 502.76991663461837L1633.9185028621082 514.5676691064921L1645.7162553339817 502.76991663461837L1683.473744891784 502.76991663461837L1699.1338568038545 518.4534367857204L1699.1338568038545 597.1519364096083ZM1876.7789828138743 475.80362527033554L1845.5992084239224 539.8485672605073L1845.5992084239224 597.1519364096083L1859.0823541060636 597.1519364096083L1859.0823541060636 603.8935092506791L1793.352018905624 603.8935092506791L1793.352018905624 597.1519364096083L1806.8351645877656 597.1519364096083L1806.8351645877656 546.2624247551371L1772.4484614504986 475.80362527033554L1759.8080123734912 475.80362527033554L1759.8080123734912 469.06205242926484L1824.6956509687966 469.06205242926484L1824.6956509687966 475.80362527033554L1814.41943403397 475.80362527033554L1841.5495830714735 531.421601209169L1868.5158744357564 475.80362527033554L1853.6984591288196 475.80362527033554L1853.6984591288196 469.06205242926484L1889.5832895641024 469.06205242926484L1889.5832895641024 475.80362527033554L1876.7789828138743 475.80362527033554ZM1901.381042035976 589.8953823098449L1915.3791689768104 603.8935092506791L1952.2939619294789 603.8935092506791L1962.5701788643055 593.6172923158525L1972.6825381259118 603.8935092506791L2010.9316007033754 603.8935092506791L2010.9316007033754 597.1519364096083L1997.4484550212337 597.1519364096083L1997.4484550212337 516.7680435754528L1983.4737363194308 502.76991663461837L1919.5926520024796 502.76991663461837L1905.5945250616455 516.7680435754528L1905.5945250616455 536.477780839972L1940.9877824772666 536.477780839972L1940.9877824772666 509.51148947568913L1958.6844111850774 509.51148947568913L1958.6844111850774 549.9609265221134L1915.3791689768104 549.9609265221134L1901.381042035976 563.9590534629477L1901.381042035976 589.8953823098449ZM1940.9877824772666 597.1519364096083L1940.9877824772666 556.7024993631842L1958.6844111850774 556.7024993631842L1958.6844111850774 587.0395771480024L1948.572051923471 597.1519364096083L1940.9877824772666 597.1519364096083ZM2127.410998124097 597.1519364096083L2140.894143806239 597.1519364096083L2140.894143806239 603.8935092506791L2104.307066200011 603.8935092506791L2092.509313728137 591.9318991055849L2080.547703583043 603.8935092506791L2038.412873326351 603.8935092506791L2022.729353175249 588.2099890995772L2022.729353175249 518.4534367857204L2038.412873326351 502.76991663461837L2079.5411493046886 502.76991663461837L2088.6469542879404 511.87572161787017L2088.6469542879404 462.32047958819413L2075.163808605799 462.32047958819413L2075.163808605799 455.57890674712337L2111.727477972995 455.57890674712337L2127.410998124097 471.2624268982254L2127.410998124097 597.1519364096083ZM2076.849201816067 597.1519364096083L2088.6469542879404 585.3541839377348L2088.6469542879404 522.3157962259172L2075.8192392986807 509.51148947568913L2062.3360936165395 509.51148947568913L2062.3360936165395 597.1519364096083L2076.849201816067 597.1519364096083ZM2152.6918962781124 589.8953823098449L2166.6666149799153 603.8935092506791L2203.5814079325837 603.8935092506791L2213.8576248674103 593.6172923158525L2223.969984129016 603.8935092506791L2262.2424549455113 603.8935092506791L2262.2424549455113 597.1519364096083L2248.7593092633697 597.1519364096083L2248.7593092633697 516.7680435754528L2234.7611823225357 502.76991663461837L2170.8800980055844 502.76991663461837L2156.9053793037815 516.7680435754528L2156.9053793037815 536.477780839972L2192.2986367194026 536.477780839972L2192.2986367194026 509.51148947568913L2209.9952654272133 509.51148947568913L2209.9952654272133 549.9609265221134L2166.6666149799153 549.9609265221134L2152.6918962781124 563.9590534629477L2152.6918962781124 589.8953823098449ZM2192.2986367194026 597.1519364096083L2192.2986367194026 556.7024993631842L2209.9952654272133 556.7024993631842L2209.9952654272133 587.0395771480024L2199.8829061656074 597.1519364096083L2192.2986367194026 597.1519364096083ZM2391.8304662238706 502.76991663461837L2391.8304662238706 509.51148947568913L2380.3838373374692 509.51148947568913L2349.6956359671785 603.8935092506791L2311.118858043274 603.8935092506791L2280.4306566729833 509.51148947568913L2268.9840277865824 509.51148947568913L2268.9840277865824 502.76991663461837L2331.1563106542344 502.76991663461837L2331.1563106542344 509.51148947568913L2319.0308428359194 509.51148947568913L2345.6694188537617 591.416917846892L2372.284586632572 509.51148947568913L2360.1591188142575 509.51148947568913L2360.1591188142575 502.76991663461837L2391.8304662238706 502.76991663461837Z " fill="#ffffff" transform="matrix(0.3658286071540214,0,0,0.36582860715402143,0,105.89904571006473)"/></g></svg>